<svg width="1200" height="630" viewBox="0 0 1200 630" fill="none" xmlns="http://www.w3.org/2000/svg">
  <rect width="1200" height="630" fill="#F7F3E8"/>
  <circle cx="1000" cy="72" r="260" fill="#DDE8CF" fill-opacity="0.85"/>
  <circle cx="136" cy="570" r="260" fill="#D98D6A" fill-opacity="0.18"/>
  <path d="M930 530C873 430 760 379 662 348C755 301 846 210 930 90C1014 210 1105 301 1198 348C1100 379 987 430 930 530Z" fill="#163F2A" fill-opacity="0.12"/>
  <g transform="translate(86 92)">
    <rect width="132" height="132" rx="36" fill="#163F2A"/>
    <path d="M66 103C60 88 45 78 33 72C47 62 59 46 66 28C73 46 85 62 99 72C87 78 72 88 66 103Z" fill="#DDE8CF"/>
    <path d="M66 103C66 78 66 52 66 28" stroke="#FFFCF4" stroke-width="6" stroke-linecap="round"/>
    <path d="M66 70C55 64 47 58 41 49" stroke="#FFFCF4" stroke-width="5" stroke-linecap="round"/>
    <path d="M66 79C78 73 87 66 93 57" stroke="#FFFCF4" stroke-width="5" stroke-linecap="round"/>
  </g>
  <text x="86" y="290" fill="#163F2A" font-family="Georgia, serif" font-size="78" font-weight="700">TreeTots DFW</text>
  <text x="88" y="365" fill="#1f4d3a" font-family="Arial, sans-serif" font-size="36" font-weight="700" letter-spacing="3">NATURE-BASED PEDIATRIC OT</text>
  <text x="88" y="438" fill="#182B20" font-family="Arial, sans-serif" font-size="34">Therapist-led outdoor groups, parent guidance,</text>
  <text x="88" y="486" fill="#182B20" font-family="Arial, sans-serif" font-size="34">and warm next steps for DFW families.</text>
  <rect x="88" y="536" width="270" height="58" rx="29" fill="#163F2A"/>
  <text x="124" y="574" fill="#FFFCF4" font-family="Arial, sans-serif" font-size="24" font-weight="700">Join the Waitlist</text>
</svg>
